# MagicaVoxel @ Ephtracy

# group
o 

# material
mtllib sideboard2.mtl
usemtl palette

# normals
vn -1 0 0
vn 1 0 0
vn 0 0 1
vn 0 0 -1
vn 0 -1 0
vn 0 1 0

# texcoords
vt 0.958984 0.5
vt 0.994141 0.5

# verts
v -2 0 1.8
v -2 0 1.3
v -2 2.1 1.8
v -2 2.1 1.3
v -1.9 0 1.9
v -1.9 0 1.8
v -1.9 2.1 1.9
v -1.9 2.1 1.8
v -1.8 0 2
v -1.8 0 1.9
v -1.8 2.1 2
v -1.8 2.1 1.9
v -1.2 0 2
v -1.2 0 1.9
v -1.2 2.1 2
v -1.2 2.1 1.9
v -1.1 0 1.9
v -1.1 0 1.8
v -1.1 2.1 1.9
v -1.1 2.1 1.8
v -1 0 1.8
v -1 0 1.3
v -1 2.1 1.8
v -1 2.1 1.3
v -1.8 0 2
v -1.8 2.1 2
v -1.7 0.7 2
v -1.7 0.8 2
v -1.7 1 2
v -1.7 1.1 2
v -1.7 1.3 2
v -1.7 1.7 2
v -1.6 0.7 2
v -1.6 0.8 2
v -1.6 1 2
v -1.6 1.1 2
v -1.6 1.4 2
v -1.6 1.6 2
v -1.4 0.7 2
v -1.4 0.8 2
v -1.4 1 2
v -1.4 1.1 2
v -1.4 1.4 2
v -1.4 1.6 2
v -1.3 0.7 2
v -1.3 0.8 2
v -1.3 1 2
v -1.3 1.1 2
v -1.3 1.3 2
v -1.3 1.7 2
v -1.2 0 2
v -1.2 2.1 2
v -1.9 0 1.9
v -1.9 2.1 1.9
v -1.8 0 1.9
v -1.8 2.1 1.9
v -1.2 0 1.9
v -1.2 2.1 1.9
v -1.1 0 1.9
v -1.1 2.1 1.9
v -2 0 1.8
v -2 2.1 1.8
v -1.9 0 1.8
v -1.9 2.1 1.8
v -1.1 0 1.8
v -1.1 2.1 1.8
v -1 0 1.8
v -1 2.1 1.8
v -2 0 1.3
v -2 2.1 1.3
v -1 0 1.3
v -1 2.1 1.3
v -1.8 0 2
v -1.2 0 2
v -1.9 0 1.9
v -1.8 0 1.9
v -1.2 0 1.9
v -1.1 0 1.9
v -2 0 1.8
v -1.9 0 1.8
v -1.1 0 1.8
v -1 0 1.8
v -2 0 1.3
v -1 0 1.3
v -1.8 2.1 2
v -1.2 2.1 2
v -1.9 2.1 1.9
v -1.8 2.1 1.9
v -1.2 2.1 1.9
v -1.1 2.1 1.9
v -2 2.1 1.8
v -1.9 2.1 1.8
v -1.1 2.1 1.8
v -1 2.1 1.8
v -2 2.1 1.3
v -1 2.1 1.3

# faces
f 3/1/1 2/1/1 1/1/1
f 4/1/1 2/1/1 3/1/1
f 7/1/1 6/1/1 5/1/1
f 8/1/1 6/1/1 7/1/1
f 11/1/1 10/1/1 9/1/1
f 12/1/1 10/1/1 11/1/1
f 13/1/2 14/1/2 15/1/2
f 15/1/2 14/1/2 16/1/2
f 17/1/2 18/1/2 19/1/2
f 19/1/2 18/1/2 20/1/2
f 21/1/2 22/1/2 23/1/2
f 23/1/2 22/1/2 24/1/2
f 27/1/3 26/1/3 25/1/3
f 28/1/3 26/1/3 27/1/3
f 29/1/3 26/1/3 28/1/3
f 30/1/3 26/1/3 29/1/3
f 31/1/3 26/1/3 30/1/3
f 32/1/3 26/1/3 31/1/3
f 33/1/3 27/1/3 25/1/3
f 33/2/3 28/2/3 27/2/3
f 34/1/3 29/1/3 28/1/3
f 34/2/3 28/2/3 33/2/3
f 35/2/3 30/2/3 29/2/3
f 35/1/3 29/1/3 34/1/3
f 36/1/3 31/1/3 30/1/3
f 36/2/3 30/2/3 35/2/3
f 37/2/3 32/2/3 31/2/3
f 38/2/3 32/2/3 37/2/3
f 39/1/3 33/1/3 25/1/3
f 39/1/3 34/1/3 33/1/3
f 39/1/3 35/1/3 34/1/3
f 39/1/3 36/1/3 35/1/3
f 40/1/3 36/1/3 39/1/3
f 41/1/3 36/1/3 40/1/3
f 42/1/3 31/1/3 36/1/3
f 42/1/3 36/1/3 41/1/3
f 43/1/3 38/1/3 37/1/3
f 43/2/3 37/2/3 31/2/3
f 44/2/3 32/2/3 38/2/3
f 44/1/3 38/1/3 43/1/3
f 45/1/3 39/1/3 25/1/3
f 45/2/3 40/2/3 39/2/3
f 46/1/3 41/1/3 40/1/3
f 46/2/3 40/2/3 45/2/3
f 47/2/3 42/2/3 41/2/3
f 47/1/3 41/1/3 46/1/3
f 48/1/3 31/1/3 42/1/3
f 48/2/3 42/2/3 47/2/3
f 49/2/3 43/2/3 31/2/3
f 49/1/3 31/1/3 48/1/3
f 49/2/3 44/2/3 43/2/3
f 50/1/3 26/1/3 32/1/3
f 50/2/3 44/2/3 49/2/3
f 50/2/3 32/2/3 44/2/3
f 51/1/3 49/1/3 48/1/3
f 51/1/3 45/1/3 25/1/3
f 51/1/3 50/1/3 49/1/3
f 51/1/3 46/1/3 45/1/3
f 51/1/3 47/1/3 46/1/3
f 51/1/3 48/1/3 47/1/3
f 52/1/3 26/1/3 50/1/3
f 52/1/3 50/1/3 51/1/3
f 55/1/3 54/1/3 53/1/3
f 56/1/3 54/1/3 55/1/3
f 59/1/3 58/1/3 57/1/3
f 60/1/3 58/1/3 59/1/3
f 63/1/3 62/1/3 61/1/3
f 64/1/3 62/1/3 63/1/3
f 67/1/3 66/1/3 65/1/3
f 68/1/3 66/1/3 67/1/3
f 69/1/4 70/1/4 71/1/4
f 71/1/4 70/1/4 72/1/4
f 76/1/5 74/1/5 73/1/5
f 77/1/5 74/1/5 76/1/5
f 80/1/5 76/1/5 75/1/5
f 80/1/5 78/1/5 77/1/5
f 80/1/5 77/1/5 76/1/5
f 81/1/5 78/1/5 80/1/5
f 83/1/5 80/1/5 79/1/5
f 83/1/5 82/1/5 81/1/5
f 83/1/5 81/1/5 80/1/5
f 84/1/5 82/1/5 83/1/5
f 85/1/6 86/1/6 88/1/6
f 88/1/6 86/1/6 89/1/6
f 87/1/6 88/1/6 92/1/6
f 89/1/6 90/1/6 92/1/6
f 88/1/6 89/1/6 92/1/6
f 92/1/6 90/1/6 93/1/6
f 91/1/6 92/1/6 95/1/6
f 93/1/6 94/1/6 95/1/6
f 92/1/6 93/1/6 95/1/6
f 95/1/6 94/1/6 96/1/6
